<?xml version="1.0" encoding="UTF-8" standalone="no"?>
<!DOCTYPE svg PUBLIC "-//W3C//DTD SVG 1.1//EN"
 "http://www.w3.org/Graphics/SVG/1.1/DTD/svg11.dtd">
<!-- Generated by graphviz version 2.38.0 (20140413.2041)
 -->
<!-- Title: polycule Pages: 1 -->
<svg width="646pt" height="332pt"
 viewBox="0.00 0.00 646.00 332.00" xmlns="http://www.w3.org/2000/svg" xmlns:xlink="http://www.w3.org/1999/xlink">
<g id="graph0" class="graph" transform="scale(1 1) rotate(0) translate(4 328)">
<title>polycule</title>
<polygon fill="white" stroke="none" points="-4,4 -4,-328 642,-328 642,4 -4,4"/>
<!-- naomee -->
<g id="node1" class="node"><title>naomee</title>
<ellipse fill="none" stroke="black" cx="348" cy="-306" rx="49.2915" ry="18"/>
<text text-anchor="middle" x="348" y="-302.3" font-family="Times,serif" font-size="14.00">Naomee</text>
</g>
<!-- sam -->
<g id="node2" class="node"><title>sam</title>
<ellipse fill="none" stroke="black" cx="378" cy="-234" rx="30.5947" ry="18"/>
<text text-anchor="middle" x="378" y="-230.3" font-family="Times,serif" font-size="14.00">Sam</text>
</g>
<!-- naomee&#45;&#45;sam -->
<g id="edge1" class="edge"><title>naomee&#45;&#45;sam</title>
<path fill="none" stroke="purple" d="M355.262,-288.055C359.979,-277.049 366.101,-262.764 370.805,-251.789"/>
</g>
<!-- lauren -->
<g id="node3" class="node"><title>lauren</title>
<ellipse fill="none" stroke="black" cx="319" cy="-162" rx="44.393" ry="18"/>
<text text-anchor="middle" x="319" y="-158.3" font-family="Times,serif" font-size="14.00">Lauren</text>
</g>
<!-- naomee&#45;&#45;lauren -->
<g id="edge2" class="edge"><title>naomee&#45;&#45;lauren</title>
<path fill="none" stroke="purple" d="M344.502,-287.871C338.928,-260.578 328.092,-207.52 322.51,-180.189"/>
</g>
<!-- sam&#45;&#45;lauren -->
<g id="edge3" class="edge"><title>sam&#45;&#45;lauren</title>
<path fill="none" stroke="purple" d="M364.906,-217.465C355.4,-206.187 342.562,-190.955 332.879,-179.467"/>
</g>
<!-- charles -->
<g id="node4" class="node"><title>charles</title>
<ellipse fill="none" stroke="black" cx="428" cy="-162" rx="46.5926" ry="18"/>
<text text-anchor="middle" x="428" y="-158.3" font-family="Times,serif" font-size="14.00">Charles</text>
</g>
<!-- sam&#45;&#45;charles -->
<g id="edge4" class="edge"><title>sam&#45;&#45;charles</title>
<path fill="none" stroke="blue" d="M389.346,-217.116C397.298,-205.983 407.909,-191.127 416.002,-179.797"/>
</g>
<!-- river -->
<g id="node5" class="node"><title>river</title>
<ellipse fill="none" stroke="black" cx="319" cy="-90" rx="35.9954" ry="18"/>
<text text-anchor="middle" x="319" y="-86.3" font-family="Times,serif" font-size="14.00">River</text>
</g>
<!-- lauren&#45;&#45;river -->
<g id="edge5" class="edge"><title>lauren&#45;&#45;river</title>
<path fill="none" stroke="blue" d="M319,-143.697C319,-132.846 319,-118.917 319,-108.104"/>
</g>
<!-- Legend -->
<g id="node6" class="node"><title>Legend</title>
<polygon fill="none" stroke="black" points="11,-7 11,-28 141,-28 141,-7 11,-7"/>
<text text-anchor="start" x="14" y="-13.8" font-family="Times,serif" font-size="14.00">Romantic (Mono)</text>
<polygon fill="none" stroke="black" points="143,-7 143,-28 263,-28 263,-7 143,-7"/>
<text text-anchor="start" x="146" y="-13.8" font-family="Times,serif" font-size="14.00">Romantic (Poly)</text>
<polygon fill="none" stroke="black" points="265,-7 265,-28 373,-28 373,-7 265,-7"/>
<text text-anchor="start" x="268" y="-13.8" font-family="Times,serif" font-size="14.00">Queerplatonic</text>
<polygon fill="none" stroke="black" points="375,-7 375,-28 538,-28 538,-7 375,-7"/>
<text text-anchor="start" x="378" y="-13.8" font-family="Times,serif" font-size="14.00">Friends With Benefits</text>
<polygon fill="none" stroke="black" points="540,-7 540,-28 627,-28 627,-7 540,-7"/>
<text text-anchor="start" x="543" y="-13.8" font-family="Times,serif" font-size="14.00">Developing</text>
<polygon fill="none" stroke="black" points="8,-4.5 8,-31.5 630,-31.5 630,-4.5 8,-4.5"/>
</g>
</g>
</svg>
